<svg xmlns="http://www.w3.org/2000/svg" width="32" height="32" fill="none" viewBox="0 0 32 32" id="sword">
  <rect width="2.677" height="6.441" x="21.448" y="23.87" fill="url(#paint0_linear_18_24030)" transform="rotate(-45 21.448 23.87)"></rect>
  <g filter="url(#filter0_f_18_24030)">
    <rect width=".707" height="6.441" x="22.436" y="22.883" fill="url(#paint1_linear_18_24030)" transform="rotate(-45 22.436 22.883)"></rect>
  </g>
  <g filter="url(#filter1_i_18_24030)">
    <path fill="url(#paint2_linear_18_24030)" d="M2.202 6.61764C1.82672 6.24236 1.61599 5.73331 1.61621 5.20258L1.61727 2.70688C1.61741 2.37571 1.88584 2.10728 2.21702 2.10714L4.71272 2.10608C5.24344 2.10585 5.7525 2.31659 6.12778 2.69187L24.2914 20.8554L20.3656 24.7812L2.202 6.61764Z"></path>
    <path fill="url(#paint3_linear_18_24030)" d="M2.202 6.61764C1.82672 6.24236 1.61599 5.73331 1.61621 5.20258L1.61727 2.70688C1.61741 2.37571 1.88584 2.10728 2.21702 2.10714L4.71272 2.10608C5.24344 2.10585 5.7525 2.31659 6.12778 2.69187L24.2914 20.8554L20.3656 24.7812L2.202 6.61764Z"></path>
    <path fill="url(#paint4_radial_18_24030)" d="M2.202 6.61764C1.82672 6.24236 1.61599 5.73331 1.61621 5.20258L1.61727 2.70688C1.61741 2.37571 1.88584 2.10728 2.21702 2.10714L4.71272 2.10608C5.24344 2.10585 5.7525 2.31659 6.12778 2.69187L24.2914 20.8554L20.3656 24.7812L2.202 6.61764Z"></path>
  </g>
  <g filter="url(#filter2_i_18_24030)">
    <path fill="url(#paint5_linear_18_24030)" d="M25.262 29.5606C24.741 29.0396 24.741 28.1949 25.262 27.6739L27.1449 25.791C27.6659 25.27 28.5106 25.27 29.0316 25.791C29.5526 26.312 29.5526 27.1567 29.0316 27.6777L27.1487 29.5606C26.6277 30.0816 25.783 30.0816 25.262 29.5606Z"></path>
    <path fill="url(#paint6_radial_18_24030)" d="M25.262 29.5606C24.741 29.0396 24.741 28.1949 25.262 27.6739L27.1449 25.791C27.6659 25.27 28.5106 25.27 29.0316 25.791C29.5526 26.312 29.5526 27.1567 29.0316 27.6777L27.1487 29.5606C26.6277 30.0816 25.783 30.0816 25.262 29.5606Z"></path>
  </g>
  <path fill="url(#paint7_radial_18_24030)" d="M25.262 29.5606C24.741 29.0396 24.741 28.1949 25.262 27.6739L27.1449 25.791C27.6659 25.27 28.5106 25.27 29.0316 25.791C29.5526 26.312 29.5526 27.1567 29.0316 27.6777L27.1487 29.5606C26.6277 30.0816 25.783 30.0816 25.262 29.5606Z"></path>
  <g filter="url(#filter3_i_18_24030)">
    <path fill="url(#paint8_linear_18_24030)" d="M1.78339 2.29274C1.89258 2.17843 2.04651 2.10721 2.21704 2.10714L4.71271 2.10608C5.24347 2.10585 5.7525 2.31659 6.12775 2.69187L24.2914 20.8554L22.3187 22.8281L1.78339 2.29274Z"></path>
    <path fill="url(#paint9_linear_18_24030)" d="M1.78339 2.29274C1.89258 2.17843 2.04651 2.10721 2.21704 2.10714L4.71271 2.10608C5.24347 2.10585 5.7525 2.31659 6.12775 2.69187L24.2914 20.8554L22.3187 22.8281L1.78339 2.29274Z"></path>
    <path fill="url(#paint10_radial_18_24030)" d="M1.78339 2.29274C1.89258 2.17843 2.04651 2.10721 2.21704 2.10714L4.71271 2.10608C5.24347 2.10585 5.7525 2.31659 6.12775 2.69187L24.2914 20.8554L22.3187 22.8281L1.78339 2.29274Z"></path>
    <path fill="url(#paint11_radial_18_24030)" d="M1.78339 2.29274C1.89258 2.17843 2.04651 2.10721 2.21704 2.10714L4.71271 2.10608C5.24347 2.10585 5.7525 2.31659 6.12775 2.69187L24.2914 20.8554L22.3187 22.8281L1.78339 2.29274Z"></path>
  </g>
  <path fill="#614B76" d="M16.6937 25.4519C16.6937 25.5936 16.7927 25.7167 16.9323 25.7413C17.3393 25.8133 17.7582 25.8508 18.1859 25.8508C22.1374 25.8508 25.3406 22.6475 25.3406 18.6961C25.3406 18.2966 25.3079 17.9047 25.2449 17.523C25.2217 17.382 25.0979 17.2812 24.9549 17.2812H22.828C22.6231 17.2812 22.4782 17.4825 22.5247 17.6821C22.6005 18.0078 22.6406 18.3473 22.6406 18.6961C22.6406 21.1564 20.6462 23.1508 18.1859 23.1508C17.8115 23.1508 17.4479 23.1046 17.1004 23.0176C16.8994 22.9673 16.6937 23.1125 16.6937 23.3198V25.4519Z"></path>
  <path fill="url(#paint12_linear_18_24030)" d="M16.6937 25.4519C16.6937 25.5936 16.7927 25.7167 16.9323 25.7413C17.3393 25.8133 17.7582 25.8508 18.1859 25.8508C22.1374 25.8508 25.3406 22.6475 25.3406 18.6961C25.3406 18.2966 25.3079 17.9047 25.2449 17.523C25.2217 17.382 25.0979 17.2812 24.9549 17.2812H22.828C22.6231 17.2812 22.4782 17.4825 22.5247 17.6821C22.6005 18.0078 22.6406 18.3473 22.6406 18.6961C22.6406 21.1564 20.6462 23.1508 18.1859 23.1508C17.8115 23.1508 17.4479 23.1046 17.1004 23.0176C16.8994 22.9673 16.6937 23.1125 16.6937 23.3198V25.4519Z"></path>
  <path fill="url(#paint13_radial_18_24030)" d="M16.6937 25.4519C16.6937 25.5936 16.7927 25.7167 16.9323 25.7413C17.3393 25.8133 17.7582 25.8508 18.1859 25.8508C22.1374 25.8508 25.3406 22.6475 25.3406 18.6961C25.3406 18.2966 25.3079 17.9047 25.2449 17.523C25.2217 17.382 25.0979 17.2812 24.9549 17.2812H22.828C22.6231 17.2812 22.4782 17.4825 22.5247 17.6821C22.6005 18.0078 22.6406 18.3473 22.6406 18.6961C22.6406 21.1564 20.6462 23.1508 18.1859 23.1508C17.8115 23.1508 17.4479 23.1046 17.1004 23.0176C16.8994 22.9673 16.6937 23.1125 16.6937 23.3198V25.4519Z"></path>
  <path fill="url(#paint14_radial_18_24030)" d="M16.6937 25.4519C16.6937 25.5936 16.7927 25.7167 16.9323 25.7413C17.3393 25.8133 17.7582 25.8508 18.1859 25.8508C22.1374 25.8508 25.3406 22.6475 25.3406 18.6961C25.3406 18.2966 25.3079 17.9047 25.2449 17.523C25.2217 17.382 25.0979 17.2812 24.9549 17.2812H22.828C22.6231 17.2812 22.4782 17.4825 22.5247 17.6821C22.6005 18.0078 22.6406 18.3473 22.6406 18.6961C22.6406 21.1564 20.6462 23.1508 18.1859 23.1508C17.8115 23.1508 17.4479 23.1046 17.1004 23.0176C16.8994 22.9673 16.6937 23.1125 16.6937 23.3198V25.4519Z"></path>
  <path fill="url(#paint15_radial_18_24030)" d="M16.6937 25.4519C16.6937 25.5936 16.7927 25.7167 16.9323 25.7413C17.3393 25.8133 17.7582 25.8508 18.1859 25.8508C22.1374 25.8508 25.3406 22.6475 25.3406 18.6961C25.3406 18.2966 25.3079 17.9047 25.2449 17.523C25.2217 17.382 25.0979 17.2812 24.9549 17.2812H22.828C22.6231 17.2812 22.4782 17.4825 22.5247 17.6821C22.6005 18.0078 22.6406 18.3473 22.6406 18.6961C22.6406 21.1564 20.6462 23.1508 18.1859 23.1508C17.8115 23.1508 17.4479 23.1046 17.1004 23.0176C16.8994 22.9673 16.6937 23.1125 16.6937 23.3198V25.4519Z"></path>
  <g filter="url(#filter4_f_18_24030)">
    <path fill="url(#paint16_linear_18_24030)" d="M18.1859 25.2508C17.883 25.2508 17.5852 25.2303 17.2937 25.1906V23.6722C17.5837 23.7239 17.8819 23.7508 18.1859 23.7508C20.9775 23.7508 23.2406 21.4877 23.2406 18.6961C23.2406 18.419 23.2183 18.1468 23.1752 17.8812H24.6905C24.7236 18.148 24.7406 18.4199 24.7406 18.6961C24.7406 22.3162 21.806 25.2508 18.1859 25.2508Z"></path>
  </g>
  <rect width="2.677" height="6.441" fill="url(#paint17_linear_18_24030)" transform="scale(-1 1)rotate(-45 24.019 23.511)"></rect>
  <g filter="url(#filter5_f_18_24030)">
    <rect width=".707" height="6.441" fill="url(#paint18_linear_18_24030)" transform="scale(-1 1)rotate(-45 23.32 21.826)"></rect>
  </g>
  <g filter="url(#filter6_i_18_24030)">
    <path fill="url(#paint19_linear_18_24030)" d="M28.8366 6.61764C29.2119 6.24236 29.4226 5.73331 29.4224 5.20258L29.4214 2.70688C29.4212 2.37571 29.1528 2.10728 28.8216 2.10714L26.3259 2.10608C25.7952 2.10585 25.2861 2.31659 24.9109 2.69187L6.74728 20.8554L10.6731 24.7812L28.8366 6.61764Z"></path>
    <path fill="url(#paint20_linear_18_24030)" d="M28.8366 6.61764C29.2119 6.24236 29.4226 5.73331 29.4224 5.20258L29.4214 2.70688C29.4212 2.37571 29.1528 2.10728 28.8216 2.10714L26.3259 2.10608C25.7952 2.10585 25.2861 2.31659 24.9109 2.69187L6.74728 20.8554L10.6731 24.7812L28.8366 6.61764Z"></path>
  </g>
  <g filter="url(#filter7_i_18_24030)">
    <path fill="url(#paint21_linear_18_24030)" d="M5.77655 29.5606C6.29755 29.0396 6.29755 28.1949 5.77655 27.6739L3.89369 25.791C3.37269 25.27 2.52798 25.27 2.00698 25.791C1.48598 26.312 1.48598 27.1567 2.00698 27.6777L3.88983 29.5606C4.41084 30.0816 5.25554 30.0816 5.77655 29.5606Z"></path>
    <path fill="url(#paint22_radial_18_24030)" d="M5.77655 29.5606C6.29755 29.0396 6.29755 28.1949 5.77655 27.6739L3.89369 25.791C3.37269 25.27 2.52798 25.27 2.00698 25.791C1.48598 26.312 1.48598 27.1567 2.00698 27.6777L3.88983 29.5606C4.41084 30.0816 5.25554 30.0816 5.77655 29.5606Z"></path>
  </g>
  <path fill="url(#paint23_radial_18_24030)" d="M5.77655 29.5606C6.29755 29.0396 6.29755 28.1949 5.77655 27.6739L3.89369 25.791C3.37269 25.27 2.52798 25.27 2.00698 25.791C1.48598 26.312 1.48598 27.1567 2.00698 27.6777L3.88983 29.5606C4.41084 30.0816 5.25554 30.0816 5.77655 29.5606Z"></path>
  <g filter="url(#filter8_i_18_24030)">
    <path fill="url(#paint24_linear_18_24030)" d="M29.2552 2.29274C29.146 2.17843 28.9921 2.10721 28.8215 2.10714L26.3259 2.10608C25.7951 2.10585 25.2861 2.31659 24.9108 2.69187L6.74719 20.8554L8.71985 22.8281L29.2552 2.29274Z"></path>
    <path fill="url(#paint25_linear_18_24030)" d="M29.2552 2.29274C29.146 2.17843 28.9921 2.10721 28.8215 2.10714L26.3259 2.10608C25.7951 2.10585 25.2861 2.31659 24.9108 2.69187L6.74719 20.8554L8.71985 22.8281L29.2552 2.29274Z"></path>
  </g>
  <path fill="#614B76" d="M14.3448 25.4519C14.3448 25.5936 14.2458 25.7167 14.1063 25.7413C13.6993 25.8133 13.2803 25.8508 12.8526 25.8508C8.90121 25.8508 5.69795 22.6475 5.69795 18.6961C5.69795 18.2966 5.7307 17.9047 5.79365 17.523C5.81692 17.382 5.94068 17.2812 6.08362 17.2812H8.21057C8.41549 17.2812 8.56033 17.4825 8.51387 17.6821C8.43804 18.0078 8.39795 18.3473 8.39795 18.6961C8.39795 21.1564 10.3924 23.1508 12.8526 23.1508C13.2271 23.1508 13.5907 23.1046 13.9382 23.0176C14.1392 22.9673 14.3448 23.1125 14.3448 23.3198V25.4519Z"></path>
  <path fill="url(#paint26_linear_18_24030)" d="M14.3448 25.4519C14.3448 25.5936 14.2458 25.7167 14.1063 25.7413C13.6993 25.8133 13.2803 25.8508 12.8526 25.8508C8.90121 25.8508 5.69795 22.6475 5.69795 18.6961C5.69795 18.2966 5.7307 17.9047 5.79365 17.523C5.81692 17.382 5.94068 17.2812 6.08362 17.2812H8.21057C8.41549 17.2812 8.56033 17.4825 8.51387 17.6821C8.43804 18.0078 8.39795 18.3473 8.39795 18.6961C8.39795 21.1564 10.3924 23.1508 12.8526 23.1508C13.2271 23.1508 13.5907 23.1046 13.9382 23.0176C14.1392 22.9673 14.3448 23.1125 14.3448 23.3198V25.4519Z"></path>
  <path fill="url(#paint27_radial_18_24030)" d="M14.3448 25.4519C14.3448 25.5936 14.2458 25.7167 14.1063 25.7413C13.6993 25.8133 13.2803 25.8508 12.8526 25.8508C8.90121 25.8508 5.69795 22.6475 5.69795 18.6961C5.69795 18.2966 5.7307 17.9047 5.79365 17.523C5.81692 17.382 5.94068 17.2812 6.08362 17.2812H8.21057C8.41549 17.2812 8.56033 17.4825 8.51387 17.6821C8.43804 18.0078 8.39795 18.3473 8.39795 18.6961C8.39795 21.1564 10.3924 23.1508 12.8526 23.1508C13.2271 23.1508 13.5907 23.1046 13.9382 23.0176C14.1392 22.9673 14.3448 23.1125 14.3448 23.3198V25.4519Z"></path>
  <path fill="url(#paint28_radial_18_24030)" d="M14.3448 25.4519C14.3448 25.5936 14.2458 25.7167 14.1063 25.7413C13.6993 25.8133 13.2803 25.8508 12.8526 25.8508C8.90121 25.8508 5.69795 22.6475 5.69795 18.6961C5.69795 18.2966 5.7307 17.9047 5.79365 17.523C5.81692 17.382 5.94068 17.2812 6.08362 17.2812H8.21057C8.41549 17.2812 8.56033 17.4825 8.51387 17.6821C8.43804 18.0078 8.39795 18.3473 8.39795 18.6961C8.39795 21.1564 10.3924 23.1508 12.8526 23.1508C13.2271 23.1508 13.5907 23.1046 13.9382 23.0176C14.1392 22.9673 14.3448 23.1125 14.3448 23.3198V25.4519Z"></path>
  <path fill="url(#paint29_radial_18_24030)" d="M14.3448 25.4519C14.3448 25.5936 14.2458 25.7167 14.1063 25.7413C13.6993 25.8133 13.2803 25.8508 12.8526 25.8508C8.90121 25.8508 5.69795 22.6475 5.69795 18.6961C5.69795 18.2966 5.7307 17.9047 5.79365 17.523C5.81692 17.382 5.94068 17.2812 6.08362 17.2812H8.21057C8.41549 17.2812 8.56033 17.4825 8.51387 17.6821C8.43804 18.0078 8.39795 18.3473 8.39795 18.6961C8.39795 21.1564 10.3924 23.1508 12.8526 23.1508C13.2271 23.1508 13.5907 23.1046 13.9382 23.0176C14.1392 22.9673 14.3448 23.1125 14.3448 23.3198V25.4519Z"></path>
  <g filter="url(#filter9_f_18_24030)">
    <path fill="url(#paint30_linear_18_24030)" d="M12.8527 25.2508C13.1556 25.2508 13.4534 25.2303 13.7449 25.1906V23.6722C13.4549 23.7239 13.1567 23.7508 12.8527 23.7508C10.061 23.7508 7.79797 21.4877 7.79797 18.6961C7.79797 18.419 7.82032 18.1468 7.86341 17.8812H6.34807C6.31502 18.148 6.29797 18.4199 6.29797 18.6961C6.29797 22.3162 9.23261 25.2508 12.8527 25.2508Z"></path>
  </g>
  <defs>
    <linearGradient id="paint0_linear_18_24030" x1="22.787" x2="22.668" y1="23.87" y2="29.384" gradientUnits="userSpaceOnUse">
      <stop stop-color="#2B1E38"></stop>
      <stop offset="1" stop-color="#502E76"></stop>
    </linearGradient>
    <linearGradient id="paint1_linear_18_24030" x1="22.79" x2="22.79" y1="22.883" y2="29.324" gradientUnits="userSpaceOnUse">
      <stop stop-color="#454249"></stop>
      <stop offset="1" stop-color="#674D82"></stop>
    </linearGradient>
    <linearGradient id="paint2_linear_18_24030" x1="7.147" x2="20.959" y1="9.437" y2="23.719" gradientUnits="userSpaceOnUse">
      <stop stop-color="#9F94AC"></stop>
      <stop offset="1" stop-color="#8F76A7"></stop>
    </linearGradient>
    <linearGradient id="paint3_linear_18_24030" x1="15.834" x2="13.366" y1="12.625" y2="15.031" gradientUnits="userSpaceOnUse">
      <stop offset=".478" stop-color="#ACA0B9"></stop>
      <stop offset="1" stop-color="#ACA0B9" stop-opacity="0"></stop>
    </linearGradient>
    <linearGradient id="paint5_linear_18_24030" x1="27.147" x2="27.147" y1="25.656" y2="29.951" gradientUnits="userSpaceOnUse">
      <stop stop-color="#6563A7"></stop>
      <stop offset="1" stop-color="#6345A1"></stop>
    </linearGradient>
    <linearGradient id="paint8_linear_18_24030" x1="3.616" x2="22.366" y1="2.719" y2="20.875" gradientUnits="userSpaceOnUse">
      <stop stop-color="#DBD7E0"></stop>
      <stop offset="1" stop-color="#D7D1DE"></stop>
    </linearGradient>
    <linearGradient id="paint9_linear_18_24030" x1="13.772" x2="14.155" y1="14.516" y2="14.109" gradientUnits="userSpaceOnUse">
      <stop stop-color="#C8BFD2"></stop>
      <stop offset="1" stop-color="#C8BFD2" stop-opacity="0"></stop>
    </linearGradient>
    <linearGradient id="paint12_linear_18_24030" x1="16.694" x2="18.959" y1="24.688" y2="24.844" gradientUnits="userSpaceOnUse">
      <stop offset=".255" stop-color="#403848"></stop>
      <stop offset="1" stop-color="#403848" stop-opacity="0"></stop>
    </linearGradient>
    <linearGradient id="paint16_linear_18_24030" x1="23.897" x2="17.428" y1="18.594" y2="25.063" gradientUnits="userSpaceOnUse">
      <stop stop-color="#654E7E"></stop>
      <stop offset="1" stop-color="#52475F"></stop>
    </linearGradient>
    <linearGradient id="paint17_linear_18_24030" x1="1.338" x2="1.22" y1="0" y2="5.513" gradientUnits="userSpaceOnUse">
      <stop stop-color="#2B1E38"></stop>
      <stop offset="1" stop-color="#502E76"></stop>
    </linearGradient>
    <linearGradient id="paint18_linear_18_24030" x1=".354" x2=".354" y1="0" y2="6.441" gradientUnits="userSpaceOnUse">
      <stop stop-color="#454249"></stop>
      <stop offset="1" stop-color="#674D82"></stop>
    </linearGradient>
    <linearGradient id="paint19_linear_18_24030" x1="23.892" x2="10.079" y1="9.437" y2="23.719" gradientUnits="userSpaceOnUse">
      <stop stop-color="#9F94AC"></stop>
      <stop offset="1" stop-color="#8F76A7"></stop>
    </linearGradient>
    <linearGradient id="paint20_linear_18_24030" x1="15.204" x2="17.673" y1="12.625" y2="15.031" gradientUnits="userSpaceOnUse">
      <stop offset=".478" stop-color="#ACA0B9"></stop>
      <stop offset="1" stop-color="#ACA0B9" stop-opacity="0"></stop>
    </linearGradient>
    <linearGradient id="paint21_linear_18_24030" x1="3.892" x2="3.892" y1="25.656" y2="29.951" gradientUnits="userSpaceOnUse">
      <stop stop-color="#6563A7"></stop>
      <stop offset="1" stop-color="#6345A1"></stop>
    </linearGradient>
    <linearGradient id="paint24_linear_18_24030" x1="27.423" x2="8.673" y1="2.719" y2="20.875" gradientUnits="userSpaceOnUse">
      <stop stop-color="#DBD7E0"></stop>
      <stop offset="1" stop-color="#D7D1DE"></stop>
    </linearGradient>
    <linearGradient id="paint25_linear_18_24030" x1="17.267" x2="16.884" y1="14.516" y2="14.109" gradientUnits="userSpaceOnUse">
      <stop stop-color="#C8BFD2"></stop>
      <stop offset="1" stop-color="#C8BFD2" stop-opacity="0"></stop>
    </linearGradient>
    <linearGradient id="paint26_linear_18_24030" x1="14.345" x2="12.079" y1="24.688" y2="24.844" gradientUnits="userSpaceOnUse">
      <stop offset=".255" stop-color="#403848"></stop>
      <stop offset="1" stop-color="#403848" stop-opacity="0"></stop>
    </linearGradient>
    <linearGradient id="paint30_linear_18_24030" x1="7.142" x2="13.611" y1="18.594" y2="25.063" gradientUnits="userSpaceOnUse">
      <stop stop-color="#654E7E"></stop>
      <stop offset="1" stop-color="#52475F"></stop>
    </linearGradient>
    <radialGradient id="paint4_radial_18_24030" cx="0" cy="0" r="1" gradientTransform="matrix(1.5 1.46875 -5.46005 5.57623 15.7 18.125)" gradientUnits="userSpaceOnUse">
      <stop offset=".348" stop-color="#8D72A7"></stop>
      <stop offset="1" stop-color="#8D72A7" stop-opacity="0"></stop>
    </radialGradient>
    <radialGradient id="paint6_radial_18_24030" cx="0" cy="0" r="1" gradientTransform="rotate(135 8.964 19.181)scale(3.0494 .66291)" gradientUnits="userSpaceOnUse">
      <stop stop-color="#736DB2"></stop>
      <stop offset="1" stop-color="#736DB2" stop-opacity="0"></stop>
    </radialGradient>
    <radialGradient id="paint7_radial_18_24030" cx="0" cy="0" r="1" gradientTransform="rotate(178.44 14.075 14.436)scale(4.01711 4.32354)" gradientUnits="userSpaceOnUse">
      <stop offset=".695" stop-color="#6B669F" stop-opacity="0"></stop>
      <stop offset=".92" stop-color="#6B669F"></stop>
    </radialGradient>
    <radialGradient id="paint10_radial_18_24030" cx="0" cy="0" r="1" gradientTransform="matrix(2.875 -6.125 2.47822 1.16325 15.2 14.063)" gradientUnits="userSpaceOnUse">
      <stop offset=".378" stop-color="#BDB8C2"></stop>
      <stop offset="1" stop-color="#BDB8C2" stop-opacity="0"></stop>
    </radialGradient>
    <radialGradient id="paint11_radial_18_24030" cx="0" cy="0" r="1" gradientTransform="matrix(-3.18751 -3.06249 3.78735 -3.94196 23.168 20)" gradientUnits="userSpaceOnUse">
      <stop offset=".126" stop-color="#8A8094"></stop>
      <stop offset="1" stop-color="#D1CBD8" stop-opacity="0"></stop>
    </radialGradient>
    <radialGradient id="paint13_radial_18_24030" cx="0" cy="0" r="1" gradientTransform="rotate(45.83 -14.54 34.452)scale(3.04972 11.7745)" gradientUnits="userSpaceOnUse">
      <stop offset=".508" stop-color="#493A5A"></stop>
      <stop offset=".819" stop-color="#493A5A" stop-opacity="0"></stop>
    </radialGradient>
    <radialGradient id="paint14_radial_18_24030" cx="0" cy="0" r="1" gradientTransform="matrix(2.46875 3.5 -6.0614 4.27545 20.772 20.563)" gradientUnits="userSpaceOnUse">
      <stop offset=".696" stop-color="#492E62" stop-opacity="0"></stop>
      <stop offset=".918" stop-color="#492E62"></stop>
    </radialGradient>
    <radialGradient id="paint15_radial_18_24030" cx="0" cy="0" r="1" gradientTransform="matrix(-1 5.875 -1.17474 -.19996 25.584 17.281)" gradientUnits="userSpaceOnUse">
      <stop offset=".095" stop-color="#7A678F"></stop>
      <stop offset="1" stop-color="#7A678F" stop-opacity="0"></stop>
    </radialGradient>
    <radialGradient id="paint22_radial_18_24030" cx="0" cy="0" r="1" gradientTransform="rotate(45 -30.789 15.826)scale(3.0494 .66291)" gradientUnits="userSpaceOnUse">
      <stop stop-color="#736DB2"></stop>
      <stop offset="1" stop-color="#736DB2" stop-opacity="0"></stop>
    </radialGradient>
    <radialGradient id="paint23_radial_18_24030" cx="0" cy="0" r="1" gradientTransform="matrix(4.01562 .10937 -.11772 4.32194 2.501 28.484)" gradientUnits="userSpaceOnUse">
      <stop offset=".695" stop-color="#6B669F" stop-opacity="0"></stop>
      <stop offset=".92" stop-color="#6B669F"></stop>
    </radialGradient>
    <radialGradient id="paint27_radial_18_24030" cx="0" cy="0" r="1" gradientTransform="matrix(-2.12501 2.18749 -8.44556 -8.20435 10.736 20.875)" gradientUnits="userSpaceOnUse">
      <stop offset=".508" stop-color="#493A5A"></stop>
      <stop offset=".819" stop-color="#493A5A" stop-opacity="0"></stop>
    </radialGradient>
    <radialGradient id="paint28_radial_18_24030" cx="0" cy="0" r="1" gradientTransform="matrix(-2.46878 3.49997 -6.06135 -4.2755 10.267 20.563)" gradientUnits="userSpaceOnUse">
      <stop offset=".696" stop-color="#492E62" stop-opacity="0"></stop>
      <stop offset=".918" stop-color="#492E62"></stop>
    </radialGradient>
    <radialGradient id="paint29_radial_18_24030" cx="0" cy="0" r="1" gradientTransform="matrix(1 5.875 -1.17474 .19996 5.454 17.281)" gradientUnits="userSpaceOnUse">
      <stop offset=".095" stop-color="#7A678F"></stop>
      <stop offset="1" stop-color="#7A678F" stop-opacity="0"></stop>
    </radialGradient>
    <filter id="filter0_f_18_24030" width="6.355" height="6.355" x="21.786" y="21.733" color-interpolation-filters="sRGB" filterUnits="userSpaceOnUse">
      <feFlood flood-opacity="0" result="BackgroundImageFix"></feFlood>
      <feBlend in="SourceGraphic" in2="BackgroundImageFix" result="shape"></feBlend>
      <feGaussianBlur result="effect1_foregroundBlur_18_24030" stdDeviation=".325"></feGaussianBlur>
    </filter>
    <filter id="filter1_i_18_24030" width="22.875" height="22.875" x="1.616" y="2.106" color-interpolation-filters="sRGB" filterUnits="userSpaceOnUse">
      <feFlood flood-opacity="0" result="BackgroundImageFix"></feFlood>
      <feBlend in="SourceGraphic" in2="BackgroundImageFix" result="shape"></feBlend>
      <feColorMatrix in="SourceAlpha" result="hardAlpha" values="0 0 0 0 0 0 0 0 0 0 0 0 0 0 0 0 0 0 127 0"></feColorMatrix>
      <feOffset dx=".2" dy=".2"></feOffset>
      <feGaussianBlur stdDeviation=".2"></feGaussianBlur>
      <feComposite in2="hardAlpha" k2="-1" k3="1" operator="arithmetic"></feComposite>
      <feColorMatrix values="0 0 0 0 0.662745 0 0 0 0 0.643137 0 0 0 0 0.686275 0 0 0 1 0"></feColorMatrix>
      <feBlend in2="shape" result="effect1_innerShadow_18_24030"></feBlend>
    </filter>
    <filter id="filter2_i_18_24030" width="4.551" height="4.551" x="24.871" y="25.4" color-interpolation-filters="sRGB" filterUnits="userSpaceOnUse">
      <feFlood flood-opacity="0" result="BackgroundImageFix"></feFlood>
      <feBlend in="SourceGraphic" in2="BackgroundImageFix" result="shape"></feBlend>
      <feColorMatrix in="SourceAlpha" result="hardAlpha" values="0 0 0 0 0 0 0 0 0 0 0 0 0 0 0 0 0 0 127 0"></feColorMatrix>
      <feOffset></feOffset>
      <feGaussianBlur stdDeviation=".25"></feGaussianBlur>
      <feComposite in2="hardAlpha" k2="-1" k3="1" operator="arithmetic"></feComposite>
      <feColorMatrix values="0 0 0 0 0.27451 0 0 0 0 0.258824 0 0 0 0 0.552941 0 0 0 1 0"></feColorMatrix>
      <feBlend in2="shape" result="effect1_innerShadow_18_24030"></feBlend>
    </filter>
    <filter id="filter3_i_18_24030" width="22.508" height="20.922" x="1.783" y="2.106" color-interpolation-filters="sRGB" filterUnits="userSpaceOnUse">
      <feFlood flood-opacity="0" result="BackgroundImageFix"></feFlood>
      <feBlend in="SourceGraphic" in2="BackgroundImageFix" result="shape"></feBlend>
      <feColorMatrix in="SourceAlpha" result="hardAlpha" values="0 0 0 0 0 0 0 0 0 0 0 0 0 0 0 0 0 0 127 0"></feColorMatrix>
      <feOffset dy=".2"></feOffset>
      <feGaussianBlur stdDeviation=".25"></feGaussianBlur>
      <feComposite in2="hardAlpha" k2="-1" k3="1" operator="arithmetic"></feComposite>
      <feColorMatrix values="0 0 0 0 0.772549 0 0 0 0 0.772549 0 0 0 0 0.776471 0 0 0 1 0"></feColorMatrix>
      <feBlend in2="shape" result="effect1_innerShadow_18_24030"></feBlend>
    </filter>
    <filter id="filter4_f_18_24030" width="8.647" height="8.57" x="16.694" y="17.281" color-interpolation-filters="sRGB" filterUnits="userSpaceOnUse">
      <feFlood flood-opacity="0" result="BackgroundImageFix"></feFlood>
      <feBlend in="SourceGraphic" in2="BackgroundImageFix" result="shape"></feBlend>
      <feGaussianBlur result="effect1_foregroundBlur_18_24030" stdDeviation=".3"></feGaussianBlur>
    </filter>
    <filter id="filter5_f_18_24030" width="6.355" height="6.355" x="2.898" y="21.733" color-interpolation-filters="sRGB" filterUnits="userSpaceOnUse">
      <feFlood flood-opacity="0" result="BackgroundImageFix"></feFlood>
      <feBlend in="SourceGraphic" in2="BackgroundImageFix" result="shape"></feBlend>
      <feGaussianBlur result="effect1_foregroundBlur_18_24030" stdDeviation=".325"></feGaussianBlur>
    </filter>
    <filter id="filter6_i_18_24030" width="22.875" height="22.875" x="6.747" y="2.106" color-interpolation-filters="sRGB" filterUnits="userSpaceOnUse">
      <feFlood flood-opacity="0" result="BackgroundImageFix"></feFlood>
      <feBlend in="SourceGraphic" in2="BackgroundImageFix" result="shape"></feBlend>
      <feColorMatrix in="SourceAlpha" result="hardAlpha" values="0 0 0 0 0 0 0 0 0 0 0 0 0 0 0 0 0 0 127 0"></feColorMatrix>
      <feOffset dx=".2" dy=".2"></feOffset>
      <feGaussianBlur stdDeviation=".2"></feGaussianBlur>
      <feComposite in2="hardAlpha" k2="-1" k3="1" operator="arithmetic"></feComposite>
      <feColorMatrix values="0 0 0 0 0.662745 0 0 0 0 0.643137 0 0 0 0 0.686275 0 0 0 1 0"></feColorMatrix>
      <feBlend in2="shape" result="effect1_innerShadow_18_24030"></feBlend>
    </filter>
    <filter id="filter7_i_18_24030" width="4.551" height="4.551" x="1.616" y="25.4" color-interpolation-filters="sRGB" filterUnits="userSpaceOnUse">
      <feFlood flood-opacity="0" result="BackgroundImageFix"></feFlood>
      <feBlend in="SourceGraphic" in2="BackgroundImageFix" result="shape"></feBlend>
      <feColorMatrix in="SourceAlpha" result="hardAlpha" values="0 0 0 0 0 0 0 0 0 0 0 0 0 0 0 0 0 0 127 0"></feColorMatrix>
      <feOffset></feOffset>
      <feGaussianBlur stdDeviation=".25"></feGaussianBlur>
      <feComposite in2="hardAlpha" k2="-1" k3="1" operator="arithmetic"></feComposite>
      <feColorMatrix values="0 0 0 0 0.27451 0 0 0 0 0.258824 0 0 0 0 0.552941 0 0 0 1 0"></feColorMatrix>
      <feBlend in2="shape" result="effect1_innerShadow_18_24030"></feBlend>
    </filter>
    <filter id="filter8_i_18_24030" width="22.508" height="20.922" x="6.747" y="2.106" color-interpolation-filters="sRGB" filterUnits="userSpaceOnUse">
      <feFlood flood-opacity="0" result="BackgroundImageFix"></feFlood>
      <feBlend in="SourceGraphic" in2="BackgroundImageFix" result="shape"></feBlend>
      <feColorMatrix in="SourceAlpha" result="hardAlpha" values="0 0 0 0 0 0 0 0 0 0 0 0 0 0 0 0 0 0 127 0"></feColorMatrix>
      <feOffset dy=".2"></feOffset>
      <feGaussianBlur stdDeviation=".25"></feGaussianBlur>
      <feComposite in2="hardAlpha" k2="-1" k3="1" operator="arithmetic"></feComposite>
      <feColorMatrix values="0 0 0 0 0.772549 0 0 0 0 0.772549 0 0 0 0 0.776471 0 0 0 1 0"></feColorMatrix>
      <feBlend in2="shape" result="effect1_innerShadow_18_24030"></feBlend>
    </filter>
    <filter id="filter9_f_18_24030" width="8.647" height="8.57" x="5.698" y="17.281" color-interpolation-filters="sRGB" filterUnits="userSpaceOnUse">
      <feFlood flood-opacity="0" result="BackgroundImageFix"></feFlood>
      <feBlend in="SourceGraphic" in2="BackgroundImageFix" result="shape"></feBlend>
      <feGaussianBlur result="effect1_foregroundBlur_18_24030" stdDeviation=".3"></feGaussianBlur>
    </filter>
  </defs>
</svg>
