<svg xmlns="http://www.w3.org/2000/svg" enable-background="new 0 0 48 48" viewBox="0 0 48 48" id="axe">
  <path fill="#757575" d="M39,13.5c0-4.39-2.61-8.36-6.64-10.1c-0.29-0.13-0.63-0.11-0.9,0.06S31,3.9,30.96,4.22C30.72,6.66,29.18,8.77,27,9.8V9.68
		c0-1.65-1.35-3-3-3s-3,1.35-3,3V9.8c-2.18-1.03-3.72-3.14-3.96-5.58C17,3.9,16.82,3.62,16.55,3.46c-0.27-0.16-0.61-0.18-0.9-0.06
		C11.61,5.14,9,9.11,9,13.5s2.61,8.36,6.64,10.1c0.13,0.05,0.26,0.08,0.4,0.08c0.18,0,0.35-0.05,0.51-0.14
		c0.27-0.16,0.46-0.44,0.49-0.76c0.25-2.45,1.79-4.55,3.96-5.58v25.48c0,1.1,0.9,2,2,2h2c1.1,0,2-0.9,2-2V17.2
		c2.18,1.04,3.72,3.14,3.96,5.58c0.03,0.32,0.21,0.6,0.49,0.76c0.16,0.09,0.33,0.14,0.51,0.14c0.13,0,0.27-0.03,0.4-0.08
		C36.39,21.86,39,17.9,39,13.5z M21,15.04c-2.8,0.99-4.94,3.3-5.7,6.14c-2.65-1.62-4.3-4.51-4.3-7.67s1.65-6.06,4.3-7.68
		c0.76,2.84,2.9,5.14,5.7,6.14V15.04z M23,9.68c0-0.55,0.45-1,1-1s1,0.45,1,1l0,24h-2V9.68z M23,35.68h2l0,1h-2V35.68z M23,38.68h2
		l0,1h-2V38.68z M23,42.68v-1h2l0,1H23z M32.7,21.18c-0.76-2.84-2.9-5.14-5.7-6.14v-3.08c2.8-0.99,4.94-3.3,5.7-6.14
		c2.65,1.62,4.3,4.51,4.3,7.68S35.35,19.56,32.7,21.18z"></path>
</svg>
