<svg xmlns="http://www.w3.org/2000/svg" viewBox="0 0 64 64" id="body-parts">
  <path d="M53.63 18.21A4.10777 4.10777 0 0152.14 21.39l-.41.41A4.24249 4.24249 0 0050.59 21.64H38.28l8.77-6.79a4.14982 4.14982 0 016.58 3.36zM25.72 21.64H13.41A4.24249 4.24249 0 0012.27 21.8l-.48-.48A4.02167 4.02167 0 0110.37 18.21a4.08438 4.08438 0 01.76-2.38A4.16425 4.16425 0 0116.91 14.82zM52.74 25.79a2.15308 2.15308 0 01-2.15 2.15H39.34a.9965.9965 0 00-1 1V51.85A2.14461 2.14461 0 0136.2 54H35.15A2.14673 2.14673 0 0133 51.85V40.94a1 1 0 00-2 0V51.85A2.14673 2.14673 0 0128.85 54H27.8a2.14461 2.14461 0 01-2.14-2.15V28.94a.9965.9965 0 00-1-1H13.41a2.15 2.15 0 010-4.3H50.59A2.14664 2.14664 0 0152.74 25.79zM37 14.249a5 5 0 11-5-5A5.00526 5.00526 0 0137 14.249z"></path>
  <path d="M23.66 39.79v6.56l-4.3 3.87a2.64979 2.64979 0 01-3.55-.07 2.61785 2.61785 0 01-.84-2.04 2.65113 2.65113 0 011-1.98zM49.03 48.11a2.61785 2.61785 0 01-.84 2.04 2.64812 2.64812 0 01-3.54.08l-4.31-3.88V39.79l7.7 6.35A2.63681 2.63681 0 0149.03 48.11z"></path>
</svg>
