<svg xmlns="http://www.w3.org/2000/svg" viewBox="0 0 64 64" id="body-parts">
  <path d="M32 53.24023a.99973.99973 0 01-1-1V40.94434a1 1 0 012 0V52.24023A.99973.99973 0 0132 53.24023zM38.62158 23.64063a.99985.99985 0 01-.6123-1.791l9.04443-6.999a4.14822 4.14822 0 016.5752 3.3623A4.10654 4.10654 0 0152.144 21.38574l-1.956 1.96192a.99989.99989 0 11-1.41406-1.41407l2.0249-2.02539A2.1473 2.1473 0 0048.24072 16.46l-9.00781 6.97168A.99726.99726 0 0138.62158 23.64063zM25.37842 23.64063a.99726.99726 0 01-.61133-.209l-9.04443-6.999a2.14929 2.14929 0 00-3.35157 1.78027 2.10825 2.10825 0 00.76123 1.63184l2.09375 2.08886A.99989.99989 0 1113.812 23.34766l-2.0249-2.02539a4.04161 4.04161 0 01-1.416-3.10938 4.14895 4.14895 0 016.53858-3.38965l9.08105 7.02637a.99985.99985 0 01-.6123 1.791z"></path>
  <path d="M36.19727 56H35.148A4.14029 4.14029 0 0132 54.55078 4.14029 4.14029 0 0128.85205 56H27.80273a4.15192 4.15192 0 01-4.14746-4.14746v-21.916H13.40674a4.14795 4.14795 0 010-8.29589H50.59326a4.14795 4.14795 0 010 8.29589H40.34473v21.916A4.15191 4.15191 0 0136.19727 56zM33 51.85254A2.14972 2.14972 0 0035.148 54h1.04932a2.14962 2.14962 0 002.14746-2.14746v-22.916a.99974.99974 0 011-1H50.59326a2.14795 2.14795 0 000-4.29589H13.40674a2.14795 2.14795 0 000 4.29589H24.65527a.99974.99974 0 011 1v22.916A2.14962 2.14962 0 0027.80273 54h1.04932A2.14972 2.14972 0 0031 51.85254a1 1 0 012 0zM32 20.49316a6.24658 6.24658 0 116.24658-6.24707A6.25412 6.25412 0 0132 20.49316zM32 10a4.24658 4.24658 0 104.24658 4.24609A4.25131 4.25131 0 0032 10z"></path>
  <path d="M17.61377 52.87012A4.65618 4.65618 0 0114.7041 44.584l9.06006-7.48144a1.0003 1.0003 0 011.27344 1.543l-9.07031 7.48926a2.6551 2.6551 0 103.39209 4.084L23.667 46.33984a.99989.99989 0 011.33789 1.48633L20.68359 51.7168A4.67382 4.67382 0 0117.61377 52.87012zM46.38135 52.87207a4.64312 4.64312 0 01-3.05127-1.14355l-4.335-3.90235A.99989.99989 0 0140.333 46.33984l4.32129 3.89063A2.65523 2.65523 0 1048.043 46.14258L38.9624 38.64551a1.0003 1.0003 0 011.27344-1.543l9.07031 7.48926a4.65874 4.65874 0 01-2.9248 8.28027z"></path>
</svg>
