<svg xmlns="http://www.w3.org/2000/svg" enable-background="new 0 0 54 54" viewBox="0 0 54 54" id="chest">
  <path d="M27,23c1.6542969,0,3-1.3457031,3-3s-1.3457031-3-3-3s-3,1.3457031-3,3S25.3457031,23,27,23z M27,19
		c0.5512695,0,1,0.4487305,1,1s-0.4487305,1-1,1s-1-0.4487305-1-1S26.4487305,19,27,19z"></path>
  <path d="M53,15c0-0.7371216-0.4050903-1.375-1-1.7218628V12c0-3.8598633-3.0322266-7-6.7597656-7H8.7597656
		C5.0322266,5,2,8.1401367,2,12v1.2781372C1.4050903,13.625,1,14.2628784,1,15v2
		c0,0.5099487,0.1975098,0.9707642,0.5126953,1.3243408C1.1891479,18.8031006,1,19.3798828,1,20v26c0,1.6542969,1.3457031,3,3,3h46
		c1.6542969,0,3-1.3457031,3-3V20c0-0.6201172-0.1891479-1.1968994-0.5126953-1.6756592C52.8024902,17.9707642,53,17.5099487,53,17
		V15z M47,36H7v-6h40V36z M7,38h40v5H7V38z M47,28H7v-5h13.1010742C20.5657349,25.2792969,22.5855713,27,25,27h4
		c2.4144287,0,4.4342651-1.7207031,4.8989258-4H47V28z M4,12c0-0.3424072,0.0335083-0.6767578,0.0962524-1h45.8074951
		C49.9664917,11.3232422,50,11.6575928,50,12v1H33H21H4V12z M22,15h10v7c0,1.6542969-1.3457031,3-3,3h-4
		c-1.6542969,0-3-1.3457031-3-3V15z M3,17v-2h17v2H4H3z M34,15h17v2h-1H34V15z M8.7597656,7h36.4804688
		c1.5488281,0,2.9137573,0.7930298,3.7835083,2H4.9762573C5.8460083,7.7930298,7.2109375,7,8.7597656,7z M51,46
		c0,0.5512695-0.4487305,1-1,1H4c-0.5512695,0-1-0.4487305-1-1V20c0-0.5512695,0.4487305-1,1-1h16v2H6c-0.5522461,0-1,0.4477539-1,1
		v22c0,0.5522461,0.4477539,1,1,1h42c0.5522461,0,1-0.4477539,1-1V22c0-0.5522461-0.4477539-1-1-1H34v-2h16
		c0.5512695,0,1,0.4487305,1,1V46z"></path>
</svg>
