<svg xmlns="http://www.w3.org/2000/svg" id="hiking" viewBox="0 0 64 64">
  <circle cx="37" cy="9" r="4"></circle>
  <path d="M51.99 44c0-.11 0-.21-.04-.32l-5.51-16.53c.94-.73 1.56-1.86 1.56-3.15h-8l-3.41-6.53c-.38-.68-.95-1.23-1.64-1.58l-.91-.46c-1.25-.64-2.75-.54-3.92.25-.72.49-1.26 1.21-1.54 2.05l-4.29 12.13c-.19.54-.29 1.1-.29 1.68h0c0 .77.18 1.53.51 2.22.35.72.8 1.37 1.32 1.96l-.83 8.31-7 10h-4l-5 5h46v-15h-3.01Zm-18.99 8-3 2h-7l7-9 1.5-6.01 4.5 1.83 3 11.18h-6Zm12 0h-2l-2-15-9-5 3.22-6.44 1.78 2.44h7c.2 0 .4-.03.59-.06l5.35 16.06h-.95l-4 8ZM19.71 28.49l2.59 1.03c.02-.12.06-.24.1-.35l4.29-12.12c.28-.86.78-1.66 1.45-2.32l-2.34-1.04c-2.08-.92-4.5.06-5.34 2.17l-2.97 7.43c-.82 2.05.17 4.38 2.22 5.2Z"></path>
</svg>
