<svg xmlns="http://www.w3.org/2000/svg" enable-background="new 0 0 64 64" viewBox="0 0 64 64" id="hospotal">
  <path d="M15.1,42H22v6.9c0,3.4,2.7,6.1,6.1,6.1h7.8c3.4,0,6.1-2.7,6.1-6.1V42h6.9c3.4,0,6.1-2.7,6.1-6.1v-7.8
		c0-3.4-2.7-6.1-6.1-6.1H42v-6.9c0-3.4-2.7-6.1-6.1-6.1h-7.8c-3.4,0-6.1,2.7-6.1,6.1V22h-6.9C11.7,22,9,24.7,9,28.1v7.8
		C9,39.3,11.7,42,15.1,42z M13,28.1c0-1.2,0.9-2.1,2.1-2.1H24c1.1,0,2-0.9,2-2v-8.9c0-1.2,0.9-2.1,2.1-2.1h7.8
		c1.2,0,2.1,0.9,2.1,2.1V24c0,1.1,0.9,2,2,2h8.9c1.2,0,2.1,0.9,2.1,2.1v7.8c0,1.2-0.9,2.1-2.1,2.1H40c-1.1,0-2,0.9-2,2v8.9
		c0,1.2-0.9,2.1-2.1,2.1h-7.8c-1.2,0-2.1-0.9-2.1-2.1V40c0-1.1-0.9-2-2-2h-8.9c-1.2,0-2.1-0.9-2.1-2.1V28.1z"></path>
</svg>
