<svg xmlns="http://www.w3.org/2000/svg" width="32" height="32" id="olympic">
  <path d="m17.443 1021.249-.885.568c-1.455.934-2.258 1.773-2.554 2.752-.081.267-.042.544-.051.815-.24-.205-.387-.475-.707-.598l-.912-.351.25.945c.074.278-.194.951-.43 1.799-.235.847-.302 1.964.553 2.976l.15.178h.018c.075.714.994 9.449.957 12.523a56.18 56.18 0 0 1-.264 4.516c-.06.633-.118 1.18-.162 1.601-.044.422-.074.688-.074.89 0 .416.193.774.459 1.04s.624.46 1.04.46h2c.427 0 .783-.206 1.046-.474.262-.267.455-.614.455-1.027 0-.207-.034-.469-.08-.889-.047-.42-.108-.963-.17-1.593-.124-1.261-.248-2.87-.25-4.518-.005-3.24.996-12.947.996-12.947a.522.522 0 0 0 .002-.055c.527-.587.868-1.119 1.045-1.627.21-.6.185-1.164.062-1.646-.245-.965-.755-1.637-.773-2.473l-.018-.85-.734.43c-.243.142-.512.269-.756.52-.143.147-.154.413-.217.642-.12-.154-.314-.395-.336-.465-.142-.472.138-1.344.223-2.098l.117-1.044zm-1.332 2.186c-.054.395-.094.818.035 1.246.177.583.593.891.823 1.232.228.339.351.604.146 1.176-.003.01.001 0-.002.012l.941.338v-.01h.002c.451-1.28.279-1.528.229-2.2-.017-.222.008-.24.088-.322.003 0 .016-.012.02-.014.194.715.448 1.435.576 1.934.088.348.103.66-.04 1.07-.129.371-.474.862-1.003 1.43h-4.54c-.467-.659-.452-1.23-.269-1.887.107-.386.27-.782.38-1.197.138.136.327.21.429.367.222.344.304.684.324.838.025.083.032.153.058.238l.977-.15c0-.045-.047-.097-.05-.143h-.003c-.348-1.121-.468-1.887-.271-2.537.132-.437.55-.908 1.15-1.422zm-2.24 6.927h3.92c-.027.26-.203 2.098-.354 3.678-.401.368-.627.325-.843.246-.226-.082-.383-.252-.383-.252-.444-.516-.975-.788-1.494-.734a1.523 1.523 0 0 0-.537.17c-.123-1.222-.285-2.885-.31-3.108zm.95 3.932c.14-.015.31.019.632.392 0 0 .299.357.8.54.292.105.675.11 1.071-.01-.067.74-.109 1.302-.172 2.08a.872.872 0 0 1-.193.076.645.645 0 0 1-.365-.03c-.226-.081-.383-.251-.383-.251a.524.524 0 0 0-.059-.06c-.263-.22-.501-.445-.86-.572-.249-.089-.538-.089-.833-.016-.068-.787-.098-1.105-.166-1.824.216-.198.407-.315.527-.328zm-.026 3.092c.065-.01.111 0 .162.02.105.037.285.172.553.396l-.057-.059s.298.357.799.54c.227.081.512.117.816.073-.131 1.749-.238 3.42-.236 4.508.002 1.696.128 3.335.254 4.613.062.64.125 1.188.172 1.606.046.417.074.737.074.779a.601.601 0 0 1-.17.328c-.113.115-.256.172-.33.172h-2a.544.544 0 0 1-.334-.166.544.544 0 0 1-.166-.334c0-.048.027-.366.07-.785.044-.42.102-.971.162-1.612.121-1.28.248-2.915.268-4.595.015-1.27-.126-3.325-.293-5.397.113-.05.195-.079.256-.088z" style="color:#000;font-style:normal;font-variant:normal;font-weight:400;font-stretch:normal;font-size:medium;line-height:normal;font-family:sans-serif;text-indent:0;text-align:start;text-decoration:none;text-decoration-line:none;text-decoration-style:solid;text-decoration-color:#000;letter-spacing:normal;word-spacing:normal;text-transform:none;direction:ltr;block-progression:tb;writing-mode:lr-tb;baseline-shift:baseline;text-anchor:start;white-space:normal;clip-rule:nonzero;display:inline;overflow:visible;visibility:visible;opacity:1;isolation:auto;mix-blend-mode:normal;color-interpolation:sRGB;color-interpolation-filters:linearRGB;solid-color:#000;solid-opacity:1;fill:#757575;fill-opacity:1;fill-rule:nonzero;stroke:none;stroke-width:1;stroke-linecap:round;stroke-linejoin:round;stroke-miterlimit:4;stroke-dasharray:none;stroke-dashoffset:1.29999995;stroke-opacity:1;color-rendering:auto;image-rendering:auto;shape-rendering:auto;text-rendering:auto;enable-background:accumulate" transform="translate(0 -1020.362)"></path>
</svg>
