<svg xmlns="http://www.w3.org/2000/svg" width="512pt" height="512pt" viewBox="-30 0 512 512" id="shield">
  <path fill="#757575" d="m437.007812 109c-41.355468 0-75.003906-33.644531-75.003906-75v-10.921875l-10.394531-3.351563c-40.5625-13.089843-82.820313-19.726562-125.605469-19.726562s-85.046875 6.636719-125.609375 19.726562l-10.394531 3.351563v10.921875c0 41.355469-33.644531 75-75 75h-15v95.347656c0 69.179688 21.597656 135.121094 62.460938 190.695313 19.660156 26.734375 43.222656 50.210937 70.03125 69.769531 27.144531 19.804688 57.023437 35.160156 88.8125 45.640625l4.699218 1.546875 4.695313-1.546875c31.789062-10.480469 61.667969-25.835937 88.8125-45.640625 26.808593-19.558594 50.371093-43.035156 70.03125-69.769531 40.863281-55.574219 62.460937-121.515625 62.460937-190.695313v-95.347656zm-15 95.347656c0 124.816406-78.5625 235.113282-196.003906 276.019532-117.441406-40.90625-196.003906-151.203126-196.003906-276.019532v-66.414062c47.160156-6.773438 84.296875-45 89.402344-92.671875 34.574218-10.132813 70.382812-15.261719 106.601562-15.261719s72.027344 5.128906 106.601563 15.261719c5.101562 47.671875 42.242187 85.898437 89.402343 92.671875zm0 0"></path>
  <path fill="#757575" d="m309.132812 77.328125-2.75-8.089844-8.359374-1.761719c-47.136719-9.921874-96.902344-9.921874-144.039063 0l-8.363281 1.761719-2.75 8.089844c-12.1875 35.871094-39.121094 65.175781-73.886719 80.40625l-8.984375 3.933594v42.675781c0 56.304688 17.570312 109.953125 50.804688 155.152344 28.164062 38.304687 65.984374 68.21875 109.371093 86.507812l5.828125 2.457032 5.828125-2.457032c43.386719-18.289062 81.207031-48.203125 109.371094-86.507812 33.234375-45.199219 50.800781-98.847656 50.800781-155.152344v-42.675781l-8.980468-3.933594c-34.765626-15.230469-61.699219-44.535156-73.890626-80.40625zm-174.160156 264.394531c-20.996094-28.550781-34.921875-60.925781-41.179687-95.246094h117.210937v161.808594c-29.695312-16.21875-55.699218-38.910156-76.03125-66.5625zm182.0625 0c-20.332031 27.652344-46.335937 50.34375-76.03125 66.5625v-161.808594h117.210938c-6.257813 34.320313-20.183594 66.695313-41.179688 95.246094zm44.96875-137.378906c0 4.0625-.113281 8.105469-.316406 12.132812h-271.367188c-.203124-4.027343-.316406-8.070312-.316406-12.132812v-23.390625c35.496094-18.179687 63.382813-48.722656 78.214844-85.703125 37.976562-6.96875 77.59375-6.96875 115.570312 0 14.832032 36.980469 42.71875 67.523438 78.214844 85.703125zm0 0"></path>
</svg>
