<svg xmlns="http://www.w3.org/2000/svg" width="512" height="512" id="vinegar-and-oil">
  <path d="M478.264 460.993C478.417 464.311 478.77 468.819 477.434 471.875C472.379 483.436 460.74 486.833 449.212 489.385C435.973 492.316 422.25 493.583 408.694 493.624L383.625 493.561C373.58 493.177 363.417 492.142 353.519 490.383C336.298 487.321 319.523 482.593 319.469 462.512L319.506 417.176C318.37 421.139 316.185 425.111 314.119 428.653C283.114 481.837 221.204 496.738 163.717 493.52C126.021 491.41 86.5408 479.567 59.2437 452.56C35.6352 429.202 23.4996 396.425 26.4364 363.418C29.4755 329.261 45.6605 299.109 66.1928 272.357L81.781 253.362C114.086 217.412 144.479 189.556 144.514 137.02L144.48 67.5862C143.52 66.7452 142.353 66.5748 141.256 65.9716C128.906 59.18 120.998 45.7846 131.339 33.7053C141.386 21.9682 158.372 17.4193 173.18 16.3569C176.856 15.7017 185.308 16.1769 188.921 16.525C205.358 18.1086 234.574 28.13 232.33 49.181C231.574 56.2726 226.595 60.8639 220.651 64.1575C219.244 64.9372 217.568 65.2729 216.329 66.2631L216.38 141.887C216.393 145.849 216.215 150.28 216.979 154.166L218.419 162.996C229.173 217.39 280.998 248.052 308.195 295.233L317.388 313.131C318.045 314.526 318.842 315.423 319.285 316.945L319.468 235.371C319.468 218.266 322.407 202.507 335.702 190.02L342.991 183.665C360.473 167.164 361.208 147.846 358.403 125.672C357.904 121.728 357.95 118.492 355.484 115.275C352.703 111.648 350.654 108.659 351.331 103.828C354.09 84.152 387.205 81.4365 403.077 81.459C419.789 81.4828 455.861 85.6841 451.447 108.893C450.427 114.255 445.54 117.61 441.295 120.458C440.545 122.973 440.271 125.656 439.92 128.25C437.367 147.158 438.92 165.817 452.543 180.629C455.55 183.899 459.007 186.685 462.117 189.843C473.333 201.231 478.217 215.193 478.243 230.828L478.264 460.993ZM175.776 32.1094C166.043 32.3206 147.888 35.8618 142.468 45.3793C147.452 53.2126 160.513 54.5269 160.521 65.1149L160.307 147.494C158.579 179.039 142.28 209.068 122.196 232.675L88.5686 269.803L76.2786 285.538C58.0984 310.101 43.3186 338.395 42.0929 369.526C40.3723 413.23 67.4435 448.942 107.139 465.388C124.081 472.407 143.365 476.311 161.636 477.397L178.526 477.627L201.611 476.512C231.6 473.484 261.96 464.054 283.72 442.217C313.312 412.52 318.639 376.701 308.51 337.879C300.188 305.984 280.532 280.475 258.562 256.691C239.787 236.366 226.857 223.356 214.389 198.649C200.744 171.607 200.286 155.025 200.269 126.588L200.257 65.026C200.262 52.3741 211.062 54.6427 216.714 46.2447C210.838 34.1653 187.375 31.7158 175.776 32.1094ZM398.337 97.092C389.577 97.5931 375.039 99.3811 367.923 105.026L367.838 105.218C378.2 112.779 393.723 112.791 406.081 112.766C418.044 111.779 425.07 109.714 436.012 105.134C424.447 98.511 411.493 96.6992 398.337 97.092ZM373.815 124.984C378.797 150.336 373.164 175.732 354.708 194.125C337.423 211.352 335.438 214.106 335.435 240.351L335.461 267.748C337.533 267.733 340.104 266.934 342.12 266.457L352.307 264.222C366.975 261.435 380.474 260.268 395.306 260.265L412.38 260.35C416.438 260.527 420.557 261.307 424.622 261.195C426.378 261.864 428.994 261.732 430.933 261.952L441.21 263.353C448.176 264.468 455.288 265.874 462.113 267.668L462.285 244.492C462.29 228.933 463.433 215.081 452.167 202.566C448.184 198.141 443.459 194.438 439.48 189.986C424.502 173.23 421.722 155.673 422.8 134.377L423.713 126.046C407.619 129.667 389.603 130.437 373.815 124.984ZM393.585 275.835C382.038 276.046 370.196 277.022 358.855 279.307L338.875 284.006C337.722 284.204 336.508 284.254 335.392 284.609L335.391 463.753C335.397 464.728 335.168 465.922 335.875 466.653C342.483 473.481 362.281 475.95 371.037 476.728L404.845 477.627C418.006 477.388 452.022 476.504 462.295 466.663L462.309 284.798C448.271 279.735 427.136 276.598 412.375 275.92L393.585 275.835Z"></path>
  <path d="M436.013 456.526L431.89 457.721C413.77 462.133 373.655 464.681 356.676 454.22 351.524 451.046 351.233 448.422 351.229 442.942L351.279 294C351.539 289.066 354.407 286.276 359.162 285.574 366.648 285.237 374.124 286.486 381.594 286.745L425.797 286.121C440.401 284.953 446.352 284.165 446.428 301.048L446.483 445.875C446.355 451.425 440.53 454.671 436.013 456.526zM366.808 302.216L367.17 428.845C367.172 433.023 366.828 437.538 367.326 441.677 380.384 446.264 414.184 447.955 427.41 441.972 428.584 441.765 429.561 441.568 430.557 441.089L430.545 306.014C430.546 304.738 430.674 303.338 430.458 302.088L378.532 302.831 367.539 301.954C367.051 301.92 367.305 301.87 366.808 302.216zM233.812 458.983C211.23 466.056 187.407 467.541 163.875 466.269 116.845 463.728 70.1794 444.615 55.6315 395.382 48.4869 371.204 51.8376 351.863 74.2972 339.641 91.1808 330.453 111.092 326.55 130.197 326.468 135.496 326.455 141.137 326.188 146.376 327.042L157.125 328.749C166.953 330.752 176.546 333.821 185.614 338.114L204.105 347.625C227.645 358.641 254.841 361.086 277.621 346.794 288.973 339.673 294.755 337.283 299.89 352.858 305.913 371.125 303.107 392.496 294.563 409.48 282.022 434.411 259.857 450.396 233.812 458.983zM131.892 342.13C115.855 342.322 98.8439 345.494 84.4288 352.662 72.8391 358.426 67.9934 363.243 68.2688 376.895 68.6293 394.769 78.4868 411.78 91.1332 423.874 122.251 453.633 190.094 456.271 229.561 443.738 262.153 432.875 287.985 406.085 287.081 370.493 286.995 367.133 286.821 363.693 285.766 360.472L285.634 360.085C266.866 369.432 263.347 372.351 242.321 372.31 215.809 372.259 202.07 363.845 179.028 352.657 163.676 345.204 148.711 342.235 131.892 342.13z"></path>
  <path d="M213.32 404.233C196.654 404.956 194.345 381.834 210.624 379.316C227.503 378.599 229.067 401.209 213.32 404.233Z"></path>
</svg>
